<svg width="34" height="34" viewBox="0 0 34 34" fill="none" xmlns="http://www.w3.org/2000/svg">
<path d="M8.57711 1.87354C13.8832 -0.665421 20.4047 -0.621094 25.661 1.98975C30.8656 4.6538 34.0293 9.40835 33.9998 14.5229C33.8785 19.6037 30.4866 24.3796 26.2469 28.0716C23.7998 30.2123 21.0618 32.1048 18.0897 33.7113C17.7837 33.857 17.4484 33.9548 17.1005 33.9993C16.7658 33.9876 16.4401 33.9058 16.1523 33.762C11.6149 31.3483 7.63379 28.2675 4.40135 24.6674C1.69659 21.6622 0.159882 18.0312 2.56982e-06 14.268C-0.00334864 9.1438 3.27115 4.41248 8.57711 1.87354ZM19.204 10.0698C17.047 9.31471 14.5599 9.72485 12.9042 11.1088C11.249 12.4928 10.7512 14.5772 11.6435 16.3891C12.536 18.2012 14.6431 19.3832 16.9804 19.3832C18.5116 19.3923 19.9836 18.8876 21.0682 17.9809C22.1529 17.0742 22.7602 15.8406 22.7548 14.5561C22.7627 12.5956 21.3609 10.8248 19.204 10.0698Z" fill="white"/>
</svg>
