<svg width="61" height="57" viewBox="0 0 61 57" fill="none" xmlns="http://www.w3.org/2000/svg">
<g filter="url(#filter0_d_0_15)">
<path fill-rule="evenodd" clip-rule="evenodd" d="M14.5217 8.02788C16.9314 6.92923 19.6483 6.70325 22.2064 7.38869C23.4512 7.72222 24.1898 9.00167 23.8563 10.2464C23.5228 11.4912 22.2433 12.2299 20.9986 11.8963C19.487 11.4913 17.8815 11.6248 16.4576 12.274C15.0337 12.9232 13.88 14.0476 13.1945 15.4544C12.5089 16.8612 12.3342 18.4627 12.7003 19.9842C13.0663 21.5057 13.9504 22.8524 15.2008 23.7934C15.8792 24.3039 16.2268 25.1426 16.1083 25.9833C15.9899 26.824 15.4242 27.534 14.6312 27.8373C13.046 28.4434 11.5899 29.3795 10.3668 30.6026C9.95474 31.0147 9.57534 31.4531 9.23018 31.9139C8.51098 32.874 8.55787 33.6784 8.93637 34.3987C9.3833 35.2492 10.4103 36.1309 11.8629 36.5879C13.0922 36.9746 13.7752 38.2846 13.3885 39.5139C13.0018 40.7431 11.6918 41.4262 10.4625 41.0395C8.07834 40.2895 5.93459 38.7184 4.80536 36.5695C3.6077 34.2904 3.67297 31.5489 5.49512 29.1162C5.97259 28.4787 6.49733 27.8724 7.06696 27.3028C7.94525 26.4245 8.91053 25.6532 9.94251 24.9972C9.11186 23.8234 8.50441 22.4945 8.16307 21.0758C7.54356 18.501 7.83925 15.7908 8.99943 13.4101C10.1596 11.0294 12.112 9.12652 14.5217 8.02788ZM44.368 12.274C42.944 11.6248 41.3386 11.4913 39.827 11.8963C38.5822 12.2299 37.3028 11.4912 36.9693 10.2464C36.6357 9.00167 37.3744 7.72222 38.6192 7.38869C41.1773 6.70325 43.8942 6.92923 46.3039 8.02788C48.7136 9.12652 50.666 11.0294 51.8262 13.4101C52.9863 15.7908 53.282 18.501 52.6625 21.0758C52.3212 22.4945 51.7137 23.8234 50.8831 24.9972C51.9151 25.6532 52.8803 26.4245 53.7586 27.3028C54.3283 27.8724 54.853 28.4787 55.3305 29.1162C57.1526 31.5489 57.2179 34.2904 56.0202 36.5695C54.891 38.7184 52.7472 40.2895 50.363 41.0395C49.1338 41.4262 47.8238 40.7431 47.4371 39.5139C47.0504 38.2846 47.7334 36.9746 48.9627 36.5879C50.4153 36.1309 51.4423 35.2492 51.8892 34.3987C52.2677 33.6784 52.3146 32.874 51.5954 31.9139C51.2502 31.4531 50.8708 31.0147 50.4588 30.6026C49.2357 29.3795 47.7795 28.4434 46.1944 27.8373C45.4014 27.534 44.8357 26.824 44.7173 25.9833C44.5988 25.1426 44.9464 24.3039 45.6248 23.7934C46.8752 22.8524 47.7593 21.5057 48.1253 19.9842C48.4914 18.4627 48.3167 16.8612 47.6311 15.4544C46.9456 14.0476 45.7919 12.9232 44.368 12.274ZM30.4131 16.3333C26.6903 16.3333 23.6724 19.3512 23.6724 23.074C23.6724 26.7969 26.6904 29.8149 30.4131 29.8149C34.1359 29.8149 37.1538 26.7969 37.1538 23.074C37.1538 19.3512 34.1359 16.3333 30.4131 16.3333ZM37.981 31.6098C40.3363 29.52 41.8205 26.4703 41.8205 23.074C41.8205 16.7739 36.7132 11.6666 30.4131 11.6666C24.113 11.6666 19.0057 16.7739 19.0057 23.074C19.0057 26.4703 20.49 29.52 22.8452 31.6098C21.252 32.4105 19.7816 33.4662 18.4971 34.7507C17.9275 35.3203 17.4027 35.9266 16.9253 36.5641C15.8551 37.9928 15.3512 39.5851 15.4399 41.192C15.5273 42.7743 16.1781 44.1908 17.1086 45.3345C18.9395 47.5849 22.0095 49 25.228 49H35.5983C38.8168 49 41.8868 47.5849 43.7177 45.3345C44.6481 44.1909 45.299 42.7743 45.3863 41.192C45.4751 39.5851 44.9711 37.9928 43.901 36.5641C43.4235 35.9266 42.8988 35.3203 42.3292 34.7507C41.0447 33.4662 39.5742 32.4105 37.981 31.6098ZM30.4131 34.4815C27.1814 34.4815 24.0821 35.7653 21.7969 38.0505C21.3849 38.4625 21.0055 38.9009 20.6603 39.3618C20.1853 39.9959 20.0768 40.5229 20.0995 40.9347C20.1236 41.3712 20.3082 41.8727 20.7285 42.3894C21.5991 43.4594 23.2918 44.3334 25.228 44.3334H35.5983C37.5345 44.3334 39.2272 43.4594 40.0978 42.3894C40.5181 41.8728 40.7027 41.3712 40.7268 40.9347C40.7495 40.5229 40.6409 39.9959 40.166 39.3618C39.8208 38.9009 39.4414 38.4625 39.0293 38.0505C36.7442 35.7653 33.6448 34.4815 30.4131 34.4815Z" fill="white"/>
</g>
<defs>
<filter id="filter0_d_0_15" x="-1.58679" y="0" width="63.9999" height="63.9999" filterUnits="userSpaceOnUse" color-interpolation-filters="sRGB">
<feFlood flood-opacity="0" result="BackgroundImageFix"/>
<feColorMatrix in="SourceAlpha" type="matrix" values="0 0 0 0 0 0 0 0 0 0 0 0 0 0 0 0 0 0 127 0" result="hardAlpha"/>
<feOffset dy="4"/>
<feGaussianBlur stdDeviation="2"/>
<feComposite in2="hardAlpha" operator="out"/>
<feColorMatrix type="matrix" values="0 0 0 0 0 0 0 0 0 0 0 0 0 0 0 0 0 0 0.25 0"/>
<feBlend mode="normal" in2="BackgroundImageFix" result="effect1_dropShadow_0_15"/>
<feBlend mode="normal" in="SourceGraphic" in2="effect1_dropShadow_0_15" result="shape"/>
</filter>
</defs>
</svg>
