<svg width="55" height="55" viewBox="0 0 55 55" fill="none" xmlns="http://www.w3.org/2000/svg">
<path d="M49.8438 1.28926H5.15625C4.14232 1.27894 3.16571 1.67127 2.44071 2.38016C1.7157 3.08906 1.30153 4.05661 1.28906 5.07051V49.9385C1.30378 50.9509 1.71895 51.9162 2.44371 52.6233C3.16846 53.3303 4.14379 53.7215 5.15625 53.7111H49.8438C50.8577 53.7192 51.8337 53.3255 52.5583 52.6162C53.283 51.9068 53.6973 50.9395 53.7109 49.9256V5.05762C53.6929 4.04669 53.2765 3.08375 52.5523 2.37811C51.8282 1.67248 50.8548 1.28117 49.8438 1.28926Z" fill="#0076B2"/>
<path d="M9.04917 20.9385H16.8308V45.9764H9.04917V20.9385ZM12.9421 8.47754C13.8347 8.47754 14.7071 8.74226 15.4492 9.2382C16.1912 9.73414 16.7695 10.439 17.1108 11.2637C17.4522 12.0884 17.5413 12.9957 17.3668 13.871C17.1924 14.7463 16.7623 15.5502 16.1309 16.181C15.4995 16.8118 14.6952 17.2412 13.8197 17.4148C12.9442 17.5884 12.0369 17.4984 11.2126 17.1563C10.3883 16.8142 9.68393 16.2352 9.18869 15.4927C8.69346 14.7502 8.42957 13.8775 8.43042 12.985C8.43156 11.7891 8.9074 10.6427 9.75339 9.79747C10.5994 8.95229 11.7463 8.47754 12.9421 8.47754ZM21.7121 20.9385H29.1714V24.376H29.2746C30.3144 22.408 32.8496 20.3326 36.6351 20.3326C44.5156 20.3154 45.9765 25.5018 45.9765 32.2264V45.9764H38.1949V33.7947C38.1949 30.8943 38.1433 27.1604 34.1515 27.1604C30.1597 27.1604 29.4808 30.3229 29.4808 33.6057V45.9764H21.7121V20.9385Z" fill="white"/>
</svg>
