<svg width="60" height="42" viewBox="0 0 60 42" fill="none" xmlns="http://www.w3.org/2000/svg">
<g clip-path="url(#clip0_602_2278)">
<path d="M58.4141 6.55083C58.0715 5.28466 57.4031 4.13034 56.4757 3.2028C55.5482 2.27526 54.3939 1.60688 53.1277 1.2642C48.4923 0 29.8364 0 29.8364 0C29.8364 0 11.1795 0.0382666 6.54411 1.30247C5.27793 1.64516 4.12361 2.31358 3.19611 3.24116C2.26861 4.16875 1.6003 5.32312 1.25771 6.58933C-0.144388 14.8255 -0.688288 27.3756 1.29621 35.2823C1.63883 36.5485 2.30717 37.7028 3.23466 38.6304C4.16216 39.5579 5.31646 40.2263 6.58261 40.569C11.218 41.8332 29.8744 41.8332 29.8744 41.8332C29.8744 41.8332 48.5306 41.8332 53.1657 40.569C54.4319 40.2263 55.5863 39.558 56.5138 38.6304C57.4414 37.7029 58.1097 36.5485 58.4524 35.2823C59.9312 27.0345 60.3869 14.4921 58.4141 6.55083Z" fill="#FF0000"/>
<path d="M23.8982 29.8805L39.3747 20.9163L23.8982 11.9521V29.8805Z" fill="white"/>
</g>
<defs>
<clipPath id="clip0_602_2278">
<rect width="59.7333" height="42" fill="white"/>
</clipPath>
</defs>
</svg>
