<svg width="58" height="58" viewBox="0 0 58 58" fill="none" xmlns="http://www.w3.org/2000/svg">
<g clip-path="url(#clip0_602_2284)">
<path d="M1.22813 28.653C1.22678 33.5262 2.50009 38.2844 4.92125 42.4784L0.996582 56.808L15.6611 52.9629C19.7172 55.1709 24.2616 56.3279 28.8797 56.3283H28.8919C44.1371 56.3283 56.5471 43.9228 56.5536 28.6748C56.5565 21.2861 53.6817 14.3383 48.4586 9.11109C43.2363 3.88434 36.2909 1.00435 28.8908 1.00098C13.6437 1.00098 1.23465 13.4058 1.22836 28.653" fill="url(#paint0_linear_602_2284)"/>
<path d="M0.240543 28.6439C0.238969 33.6924 1.55791 38.6208 4.0654 42.965L0 57.8082L15.1904 53.8253C19.3758 56.1074 24.0882 57.3105 28.8833 57.3123H28.8957C44.6879 57.3123 57.5436 44.4606 57.5504 28.6668C57.5531 21.0126 54.5749 13.815 49.1651 8.40056C43.7547 2.98678 36.5609 0.00314729 28.8957 0C13.1008 0 0.246837 12.8499 0.240543 28.6439ZM9.28697 42.2168L8.71978 41.3165C6.33549 37.5253 5.07702 33.1443 5.07882 28.6457C5.08377 15.5181 15.7675 4.83783 28.9047 4.83783C35.2667 4.84053 41.2456 7.32059 45.7427 11.8203C50.2395 16.3205 52.7139 22.3026 52.7123 28.665C52.7065 41.7926 42.0226 52.4743 28.8957 52.4743H28.8862C24.612 52.472 20.42 51.3242 16.7642 49.155L15.8942 48.6391L6.87997 51.0025L9.28697 42.2168Z" fill="url(#paint1_linear_602_2284)"/>
<path d="M21.7338 16.6688C21.1974 15.4767 20.6329 15.4526 20.1229 15.4317C19.7052 15.4137 19.2277 15.4151 18.7506 15.4151C18.2732 15.4151 17.4973 15.5947 16.8416 16.3107C16.1852 17.0274 14.3354 18.7593 14.3354 22.2818C14.3354 25.8043 16.9012 29.2087 17.2588 29.6869C17.6169 30.1641 22.212 37.6241 29.4894 40.494C35.5376 42.879 36.7684 42.4046 38.0811 42.285C39.3939 42.1659 42.3173 40.5536 42.9137 38.8817C43.5106 37.21 43.5106 35.7771 43.3316 35.4777C43.1527 35.1793 42.6752 35.0002 41.9592 34.6423C41.2432 34.2844 37.7229 32.552 37.0667 32.3131C36.4103 32.0743 35.933 31.9552 35.4555 32.6721C34.9781 33.3879 33.607 35.0002 33.189 35.4777C32.7716 35.9563 32.3537 36.0159 31.6379 35.6577C30.9214 35.2985 28.6156 34.5434 25.8799 32.1044C23.7515 30.2066 22.3145 27.863 21.8968 27.1461C21.4791 26.4303 21.8521 26.0423 22.2111 25.6856C22.5328 25.3648 22.9273 24.8495 23.2857 24.4316C23.6427 24.0134 23.7618 23.7151 24.0005 23.2376C24.2395 22.7597 24.1199 22.3416 23.9412 21.9834C23.7618 21.6253 22.3705 18.0844 21.7338 16.6688Z" fill="white"/>
</g>
<defs>
<linearGradient id="paint0_linear_602_2284" x1="2778.85" y1="5581.7" x2="2778.85" y2="1.00098" gradientUnits="userSpaceOnUse">
<stop stop-color="#1FAF38"/>
<stop offset="1" stop-color="#60D669"/>
</linearGradient>
<linearGradient id="paint1_linear_602_2284" x1="2877.52" y1="5780.82" x2="2877.52" y2="0" gradientUnits="userSpaceOnUse">
<stop stop-color="#F9F9F9"/>
<stop offset="1" stop-color="white"/>
</linearGradient>
<clipPath id="clip0_602_2284">
<rect width="57.5504" height="58" fill="white"/>
</clipPath>
</defs>
</svg>
